<svg width="26" height="30" viewBox="0 0 26 30" fill="none" xmlns="http://www.w3.org/2000/svg">
<path d="M11.259 10C11.6875 10 11.8166 9.8152 11.8166 9.34456V6.38643C11.8166 5.91578 11.6875 5.69753 11.259 5.69753H10.6345V10H11.259Z" fill="#141414"/>
<path d="M9.82631 20.8447L9.84074 20.8871L9.85967 20.929H9.05684L9.07577 20.8871L9.09019 20.8447L9.10913 20.798L9.12851 20.7561L9.14248 20.7137L9.16142 20.6718L9.18035 20.6251L9.19928 20.5827L9.21371 20.5408L9.23264 20.4989L9.25157 20.4566L9.266 20.4098L9.28493 20.3679L9.30386 20.3255L9.31829 20.2836L9.33722 20.2413L9.35615 20.1945L9.37508 20.1526L9.38951 20.1103L9.40844 20.0679L9.42737 20.0216L9.4418 19.9793L9.46073 19.9369L9.47966 19.9793L9.49409 20.0216L9.51257 20.0679L9.53195 20.1103L9.54638 20.1526L9.56531 20.1945L9.58424 20.2413L9.59822 20.2836L9.6176 20.3255L9.63654 20.3679L9.65051 20.4098L9.66989 20.4566L9.68387 20.4989L9.72173 20.5827L9.73616 20.6251L9.75509 20.6718L9.77402 20.7137L9.78845 20.7561L9.80738 20.798L9.82631 20.8447Z" fill="#141414"/>
<path fill-rule="evenodd" clip-rule="evenodd" d="M0 2.35107C0 0.633606 0.628931 0 2.33283 0H23.6654C25.3693 0 25.9983 0.633606 25.9983 2.35107V23.0754C25.9983 23.27 25.9983 24.6145 24.6602 25.3248C23.3221 26.0351 14.19 29.6941 14.19 29.6941C13.6526 29.9425 13.3927 30.0071 12.9991 29.9994C12.5574 29.9994 12.3917 29.941 11.8029 29.6941C11.8029 29.6941 2.6771 25.9165 1.33855 25.3248C0.111622 24.7575 0.0627896 24.1109 0.0331429 23.7183C0.0304458 23.6826 0.0279074 23.649 0.0246552 23.6177C0.00762069 23.4502 0 23.27 0 23.0754V2.35107ZM8.27273 8.82988V10.5928H5.91569V14.123H8.27273V15.8824H4.13636V4.11765H8.27273V5.87971H5.91569V8.82988H8.27273ZM19.4 14.3585C19.8584 14.3585 20.0919 14.1439 20.0919 13.6812V11.1782H21.8636V13.7638C21.8636 15.2013 21.1299 15.8895 19.6515 15.8895H18.7506C17.2727 15.8895 16.5455 15.2013 16.5455 13.7638V6.47197C16.5455 5.03438 17.2727 4.12831 18.7506 4.12831H19.6346C21.1125 4.12831 21.8636 4.85522 21.8636 6.29236V8.82615L20.0919 8.82303V6.47197C20.0919 5.888 19.9236 5.7003 19.3658 5.7003H19.0602C18.5844 5.7003 18.3235 6.00926 18.3235 6.47197V13.6812C18.3235 14.1439 18.5844 14.3585 19.0602 14.3585H19.4ZM14.1818 15.8824H15.9545V4.11765H14.1818V15.8824ZM8.86364 15.8824V4.11765H11.5286C12.909 4.11765 13.5909 4.84022 13.5909 6.30245V9.429C13.5909 10.8908 12.909 11.6133 11.5286 11.6133H10.6345V15.8824H8.86364ZM22.1496 21.401L22.1546 21.3542L22.1591 21.3026V21.1906L22.1546 21.1394L22.1496 21.0927L22.1307 20.9991L22.1212 20.9572L22.1073 20.9153L22.0928 20.873L22.0739 20.8359L22.05 20.7936L22.0261 20.7565L21.9977 20.7146L21.9693 20.6771L21.936 20.6445L21.9026 20.607L21.8269 20.5417L21.7886 20.5183L21.7507 20.4901L21.7128 20.4671L21.6272 20.4204L21.5798 20.397L21.5321 20.378L21.4847 20.3547L21.4324 20.3366L21.3896 20.3225L21.3472 20.3083L21.2995 20.2947L21.2566 20.2806L21.162 20.2523L21.1142 20.2431L21.0619 20.2289L21.0146 20.2153L20.9623 20.2056L20.91 20.1919L20.8054 20.1637L20.7581 20.1544L20.7153 20.1403L20.6724 20.131L20.6346 20.1169L20.5967 20.1076L20.5395 20.0891L20.4872 20.0701L20.4398 20.0516L20.402 20.0282L20.3587 20.0049L20.3258 19.9722L20.3064 19.9444L20.283 19.8928L20.278 19.8324V19.8227L20.283 19.7764L20.3019 19.734L20.3303 19.6921L20.3731 19.6546L20.4065 19.6361L20.4443 19.6175L20.4872 19.6083L20.5349 19.5986L20.5868 19.5893H20.6914L20.7342 19.5942L20.782 19.5986L20.8293 19.6034L20.924 19.622L20.9717 19.6312L21.0191 19.6453L21.0669 19.6595L21.1187 19.6736L21.157 19.6921L21.1998 19.7062L21.2377 19.7247L21.2805 19.7433L21.3184 19.7622L21.3612 19.7808L21.3991 19.8041L21.4419 19.8227L21.4802 19.8509L21.5181 19.8743L21.5605 19.8977L21.5988 19.9255L21.6272 19.8884L21.6511 19.8509L21.6795 19.8134L21.7079 19.7764L21.7363 19.734L21.7602 19.697L21.7886 19.6595L21.8174 19.622L21.8408 19.5849L21.8692 19.5474L21.8981 19.5099L21.922 19.4729L21.9499 19.4305L21.9788 19.3935L22.0072 19.356L22.0311 19.3185L22.0595 19.281L21.9837 19.2254L21.9454 19.1972L21.9076 19.1738L21.8647 19.146L21.8269 19.1226L21.7412 19.0759L21.7034 19.0569L21.6605 19.0339L21.6127 19.015L21.5704 18.9964L21.5276 18.9779L21.4847 18.9638L21.4369 18.9448L21.3946 18.9356L21.3518 18.9215L21.304 18.9078L21.2616 18.8985L21.2138 18.8888L21.1665 18.8796L21.1237 18.8703L21.0763 18.861L21.024 18.8562L20.9767 18.8469L20.924 18.8425H20.8766L20.7721 18.8328H20.5679L20.4732 18.8425L20.4254 18.8469L20.3781 18.8518L20.3353 18.861L20.2879 18.8703L20.2446 18.8796L20.2023 18.8888L20.1644 18.8985L20.1211 18.9122L20.0738 18.9312L20.0265 18.9448L19.9836 18.9638L19.9408 18.9872L19.898 19.0057L19.8552 19.0291L19.8173 19.0525L19.7794 19.0803L19.7411 19.1085L19.7082 19.1319L19.6699 19.1645L19.637 19.202L19.6036 19.2347L19.5703 19.2717L19.5135 19.3467L19.4896 19.3886L19.4662 19.4305L19.4468 19.4729L19.4089 19.5567L19.3994 19.5986L19.385 19.6409L19.3661 19.7247L19.3611 19.7715L19.3566 19.8134L19.3517 19.8602V19.9678L19.3611 20.0657L19.3661 20.1125L19.3755 20.1544L19.385 20.2012L19.3994 20.2382L19.4134 20.2806L19.4278 20.3176L19.4468 20.3503L19.4707 20.3922L19.4941 20.4297L19.518 20.4623L19.5464 20.4949L19.5752 20.5276L19.6081 20.5602L19.6415 20.5929L19.6749 20.6211L19.7127 20.6445L19.751 20.6723L19.7934 20.6956L19.8317 20.719L19.8791 20.7424L19.9219 20.7658L19.9692 20.7843L20.017 20.8033L20.0643 20.8218L20.1166 20.8403L20.2023 20.8686L20.2446 20.8827L20.2924 20.8919L20.3353 20.9061L20.3826 20.9197L20.4299 20.929L20.4777 20.9431L20.525 20.9524L20.5773 20.9665L20.6251 20.9758L20.6769 20.9899L20.7247 20.9991L20.7721 21.0133L20.8149 21.0225L20.8577 21.0366L20.8956 21.0459L20.9289 21.0552L20.9857 21.0785L21.0335 21.0975L21.0763 21.116L21.1142 21.1346L21.1521 21.1628L21.1854 21.1906L21.2093 21.2232L21.2282 21.27L21.2332 21.326V21.3353L21.2282 21.382L21.2138 21.4239L21.1949 21.4614L21.1665 21.4941L21.1286 21.5223L21.0953 21.5408L21.0569 21.555L21.0146 21.5642L20.9717 21.5735L20.924 21.5827L20.8717 21.5876H20.7675L20.7153 21.5827H20.6679L20.6201 21.5735L20.5679 21.5691L20.5205 21.5594L20.4732 21.5501L20.4254 21.5408L20.3826 21.5267L20.3353 21.513L20.2879 21.4989L20.2446 21.4804L20.2023 21.4663L20.1594 21.4473L20.0738 21.4103L20.0359 21.3869L19.9931 21.3684L19.9552 21.3445L19.9124 21.3167L19.8741 21.2934L19.8317 21.2656L19.7934 21.2373L19.751 21.2091L19.7127 21.1813L19.6843 21.2188L19.651 21.2515L19.6226 21.289L19.5892 21.326L19.5608 21.3587L19.5324 21.3961L19.4991 21.4336L19.4707 21.4663L19.4373 21.5033L19.4089 21.5364L19.3755 21.5735L19.3472 21.611L19.3188 21.6436L19.2854 21.6811L19.257 21.7182L19.2236 21.7508L19.1952 21.7883L19.2331 21.8209L19.2665 21.8492L19.3043 21.877L19.3422 21.9052L19.3805 21.933L19.4184 21.9612L19.4941 22.008L19.5374 22.0314L19.5752 22.0543L19.6176 22.0777L19.6609 22.0967L19.7033 22.1196L19.7461 22.1381L19.7889 22.1571L19.8362 22.1756L19.8791 22.1897L19.9264 22.2038L19.9692 22.2224L20.017 22.2365L20.0643 22.2502L20.1072 22.2599L20.1545 22.2735L20.2023 22.2832L20.3447 22.311L20.392 22.3159L20.4398 22.3252L20.4917 22.3296L20.5868 22.3393H20.6391L20.6864 22.3437H20.8861L20.9857 22.3344L21.0335 22.3296L21.1237 22.3203L21.1714 22.311L21.2138 22.3018L21.2566 22.2925L21.304 22.2832L21.3472 22.2691L21.4419 22.2409L21.4892 22.2224L21.537 22.2038L21.5798 22.1805L21.6222 22.1615L21.6655 22.1381L21.7034 22.1103L21.7412 22.0874L21.7791 22.0592L21.8124 22.0314L21.8503 21.9983L21.9121 21.9378L21.9405 21.9052L21.9644 21.8677L21.9928 21.8302L22.0405 21.7557L22.0595 21.7138L22.0784 21.6763L22.0973 21.6344L22.1118 21.5876L22.1212 21.5457L22.1352 21.4989L22.1451 21.4522L22.1496 21.401ZM16.1011 22.2877H18.8707V21.5175H17.0085V20.9387H18.6615V20.2153H17.0085V19.6595H18.8468V18.8888H16.1011V22.2877ZM14.4828 22.2877H15.3997V18.8888H14.426L14.4021 18.9263L14.3787 18.9682L14.3498 19.0053L14.326 19.0476L14.3025 19.0847L14.2786 19.127L14.2502 19.1641L14.2263 19.206L14.2024 19.2435L14.179 19.2805L14.1506 19.3224L14.1267 19.3599L14.1028 19.4018L14.0789 19.4393L14.051 19.4808L14.0032 19.5558L13.9793 19.5973L13.9559 19.6348L13.9275 19.6767L13.9036 19.7142L13.8797 19.7556L13.8558 19.7931L13.8274 19.835L13.804 19.8721L13.7801 19.9096L13.7562 19.9515L13.7278 19.989L13.7039 20.0309L13.6804 20.0679L13.6566 20.1103L13.6282 20.1473L13.6043 20.1892L13.5804 20.2267L13.5569 20.1892L13.533 20.1473L13.5042 20.1103L13.4808 20.0679L13.4569 20.0309L13.4334 19.989L13.4095 19.9515L13.3807 19.9096L13.3572 19.8721L13.3333 19.835L13.3099 19.7931L13.286 19.7556L13.2572 19.7142L13.2337 19.6767L13.2098 19.6348L13.1864 19.5973L13.1625 19.5558L13.1337 19.5183L13.1102 19.4808L13.0863 19.4393L13.0624 19.4018L13.034 19.3599L13.0101 19.3224L12.9867 19.2805L12.9628 19.2435L12.9389 19.206L12.9105 19.1641L12.8871 19.127L12.8632 19.0847L12.8393 19.0476L12.8154 19.0053L12.787 18.9682L12.7631 18.9263L12.7397 18.8888H11.766V22.2877H12.6685V20.2872L12.6969 20.3247L12.7207 20.367L12.7491 20.4041L12.773 20.4464L12.8014 20.4839L12.8249 20.5258L12.8537 20.5633L12.8772 20.6052L12.906 20.6427L12.9299 20.6846L12.9583 20.7221L12.9822 20.7645L13.0101 20.802L13.034 20.8439L13.0624 20.8814L13.0863 20.9233L13.1152 20.9608L13.1436 21.0027L13.167 21.0402L13.1954 21.0825L13.2193 21.12L13.2482 21.1619L13.2716 21.1994L13.3004 21.2413L13.3239 21.2788L13.3523 21.3207L13.3762 21.3582L13.4046 21.4001L13.4285 21.4381L13.4569 21.48L13.4808 21.5175L13.5092 21.5594L13.533 21.5969L13.5614 21.6388H13.5804L13.6043 21.6017L13.6327 21.5594L13.6566 21.5219L13.685 21.4844L13.7088 21.4425L13.7372 21.405L13.7607 21.3675L13.7846 21.3256L13.8134 21.2881L13.8369 21.251L13.8657 21.2131L13.8892 21.1712L13.9176 21.1337L13.9414 21.0966L13.9653 21.0543L13.9937 21.0168L14.0176 20.9793L14.046 20.9374L14.0695 20.8999L14.0983 20.8624L14.1222 20.8205L14.1456 20.783L14.1745 20.7459L14.1979 20.7036L14.2263 20.6661L14.2502 20.6286L14.2786 20.5915L14.3025 20.5492L14.326 20.5117L14.3548 20.4742L14.3787 20.4323L14.4071 20.3948L14.431 20.3577L14.4594 20.3154L14.4828 20.2779V22.2877ZM10.4011 22.2877H11.3797L11.3418 22.2038L11.3229 22.1615L11.3085 22.1147L11.2895 22.0733L11.2706 22.0314L11.2517 21.989L11.2133 21.9052L11.1949 21.8584L11.1755 21.8165L11.1611 21.7742L11.1426 21.7323L11.1232 21.6904L11.1043 21.6485L11.0853 21.6017L11.0664 21.5594L11.0281 21.4756L11.0141 21.4336L10.9952 21.3913L10.9758 21.3445L10.9001 21.1769L10.8811 21.1346L10.8667 21.0878L10.8099 20.9621L10.7905 20.9197L10.7716 20.8778L10.7527 20.8311L10.7337 20.7892L10.7193 20.7473L10.7008 20.7049L10.6814 20.663L10.6625 20.6211L10.6436 20.5743L10.6246 20.5324L10.5863 20.4482L10.5723 20.4063L10.5534 20.3644L10.534 20.3225L10.5155 20.2757L10.4772 20.1919L10.4583 20.1495L10.4394 20.1076L10.4249 20.0657L10.406 20.019L10.3871 19.9771L10.3681 19.9347L10.3488 19.8928L10.3109 19.809L10.292 19.7622L10.2775 19.7203L10.2591 19.678L10.2397 19.6361L10.2207 19.5942L10.2018 19.5518L10.1829 19.5055L10.1635 19.4632L10.1446 19.4212L10.1306 19.3793L10.1117 19.3374L10.0923 19.2951L10.0738 19.2483L10.0544 19.2064L10.0165 19.1226L9.99761 19.0803L9.98318 19.0384L9.96425 18.9916L9.92638 18.9078L9.907 18.8654H9.02844L9.00951 18.9078L8.99057 18.9497L8.97119 18.9916L8.95722 19.0384L8.93828 19.0803L8.91935 19.1226L8.89997 19.1645L8.88148 19.2064L8.8621 19.2483L8.84317 19.2951L8.82379 19.3374L8.80981 19.3793L8.77195 19.4632L8.75301 19.5055L8.73408 19.5518L8.7147 19.5942L8.67683 19.678L8.66241 19.7203L8.64348 19.7622L8.62454 19.809L8.56775 19.9347L8.54881 19.9771L8.52943 20.019L8.51546 20.0657L8.47759 20.1495L8.45821 20.1919L8.42034 20.2757L8.40141 20.3225L8.38248 20.3644L8.36805 20.4063L8.33019 20.4901L8.31125 20.5324L8.29187 20.5743L8.27294 20.6211L8.23507 20.7049L8.22065 20.7473L8.18278 20.8311L8.16385 20.8778L8.14492 20.9197L8.12599 20.9621L8.10705 21.004L8.08767 21.0459L8.07369 21.0878L8.05476 21.1346L8.03538 21.1769L7.95965 21.3445L7.94072 21.3913L7.92629 21.4336L7.86949 21.5594L7.85011 21.6017L7.83118 21.6485L7.8127 21.6904L7.79331 21.7323L7.77889 21.7742L7.75995 21.8165L7.74102 21.8584L7.72209 21.9052L7.68422 21.989L7.64591 22.0733L7.63148 22.1147L7.613 22.1615L7.57469 22.2457L7.55575 22.2877H8.51546L8.53439 22.2457L8.54881 22.2038L8.56775 22.1615L8.58668 22.1147L8.6011 22.0733L8.62004 22.0314L8.63897 21.989L8.65294 21.9471L8.67233 21.9052L8.69126 21.8633L8.70523 21.8209L8.72416 21.7742L8.74355 21.7323L8.75797 21.6904L8.77645 21.6485H10.1401L10.159 21.6904L10.1734 21.7323L10.1923 21.7742L10.2113 21.8209L10.2252 21.8633L10.2446 21.9052L10.2636 21.9471L10.2775 21.989L10.3159 22.0733L10.3298 22.1147L10.3488 22.1615L10.3681 22.2038L10.3826 22.2457L10.4011 22.2877ZM7.13247 21.8818L7.17079 21.8536L7.20415 21.8258V20.3083H5.63635V20.9899H6.33009V21.4147L6.29223 21.4381L6.25842 21.457L6.21605 21.4756L6.17773 21.4941L6.13491 21.513L6.09253 21.5223L6.0452 21.5364L5.99742 21.5457L5.95009 21.555L5.79773 21.5691H5.68864L5.63635 21.5642L5.58902 21.5594L5.54124 21.5501L5.4939 21.5408L5.44612 21.5267L5.39879 21.513L5.35597 21.4941L5.31314 21.4756L5.27077 21.457L5.23245 21.4336L5.19459 21.4103L5.15672 21.382L5.11841 21.3542L5.0855 21.326L5.05665 21.2934L5.02374 21.2607L4.99489 21.2281L4.9665 21.1906L4.94306 21.1535L4.91871 21.116L4.89527 21.0741L4.87634 21.0318L4.85696 20.985L4.84298 20.948L4.82901 20.9061L4.81954 20.8637L4.80016 20.7799L4.79069 20.6908L4.78619 20.6445V20.5368L4.7952 20.4438L4.80512 20.3922L4.81458 20.3503L4.82405 20.3039L4.83848 20.2572L4.85696 20.2153L4.87138 20.1729L4.89077 20.131L4.91466 20.0935L4.9381 20.0516L4.96199 20.0141L4.98543 19.9815L5.01428 19.9444L5.04719 19.9113L5.07604 19.8787L5.10894 19.8509L5.1423 19.8227L5.17566 19.7949L5.25139 19.7481L5.2897 19.7247L5.33253 19.7062L5.3749 19.6872L5.41772 19.6736L5.46055 19.6595L5.50337 19.6502L5.5507 19.6409L5.59353 19.6361L5.64131 19.6312H5.74093L5.89284 19.6453L5.94017 19.6546L5.98795 19.6643L6.03078 19.6736L6.07315 19.6872L6.11597 19.7014L6.15429 19.7155L6.19216 19.734L6.23047 19.753L6.27284 19.7764L6.31071 19.7993L6.34903 19.8227L6.38689 19.846L6.42476 19.8743L6.46307 19.8977L6.50094 19.9303L6.5388 19.9581L6.5672 19.921L6.60056 19.8884L6.62896 19.8509L6.66232 19.8134L6.69071 19.7764L6.71956 19.7433L6.75247 19.7062L6.78132 19.6687L6.81423 19.6312L6.84308 19.5986L6.87148 19.5615L6.90483 19.524L6.93323 19.4914L6.96163 19.4539L6.99499 19.4164L7.02339 19.3793L7.05674 19.3467L7.08514 19.3092L7.04728 19.281L7.00896 19.2483L6.9711 19.2205L6.93323 19.1923L6.89537 19.1689L6.8575 19.1411L6.81423 19.1178L6.77636 19.0944L6.73399 19.071L6.69567 19.0476L6.65285 19.0291L6.61048 19.0057L6.5672 18.9872L6.52483 18.9682L6.48201 18.9497L6.43918 18.9356L6.40132 18.9215L6.35849 18.9122L6.31567 18.8985L6.27284 18.8888L6.23047 18.8796L6.1872 18.8703L6.09253 18.8518L6.04971 18.8469L5.99742 18.8376L5.95009 18.8328H5.90231L5.85002 18.8284L5.79773 18.8235H5.59353L5.54619 18.8284L5.49841 18.8328L5.40375 18.8425L5.35597 18.8518L5.30864 18.8562L5.2613 18.8654L5.21848 18.8796L5.1707 18.8888L5.12787 18.9029L5.0855 18.9122L5.04268 18.9312L4.99489 18.9448L4.95703 18.959L4.9097 18.9823L4.86687 19.0009L4.82405 19.0198L4.69558 19.09L4.65817 19.1133L4.61985 19.1363L4.58198 19.1645L4.54367 19.1879L4.5058 19.2157L4.47245 19.2439L4.43458 19.2766L4.40122 19.3044L4.33496 19.3701L4.30611 19.4027L4.2732 19.4354L4.24435 19.468L4.21595 19.5055L4.18756 19.5426L4.15916 19.5801L4.11137 19.6546L4.08793 19.6921L4.06404 19.7296L4.04015 19.7715L4.02122 19.8134L3.98335 19.8977L3.96442 19.9396L3.94504 19.9863L3.93106 20.0282L3.91664 20.075L3.90267 20.1169L3.8932 20.1637L3.87877 20.2104L3.86931 20.2523L3.86435 20.2991L3.85488 20.3454L3.84542 20.4438V20.4901L3.84091 20.5417V20.6956L3.84992 20.7892L3.85488 20.8359L3.85984 20.8778L3.86931 20.9246L3.87382 20.9665L3.88328 21.0133L3.89771 21.0552L3.90717 21.1019L3.9216 21.1438L3.93106 21.1862L3.95 21.2281L3.96442 21.2656L4.02122 21.3913L4.04015 21.4336L4.06404 21.4707L4.08793 21.513L4.11137 21.5501L4.13527 21.5876L4.16366 21.6251L4.18756 21.6621L4.21595 21.6948L4.24435 21.7323L4.2732 21.7649L4.30611 21.7976L4.33947 21.8302L4.37282 21.8584L4.40618 21.8911L4.43909 21.9193L4.47245 21.9471L4.51076 21.9753L4.54863 22.0031L4.58649 22.0314L4.62436 22.0543L4.66267 22.0777L4.7055 22.1011L4.74336 22.1244L4.78619 22.1478L4.82901 22.1663L4.91466 22.2038L4.96199 22.2224L5.00436 22.2365L5.04719 22.255L5.09001 22.2691L5.13779 22.2784L5.18016 22.2925L5.22795 22.3018L5.27077 22.311L5.36543 22.3296L5.46055 22.3393L5.6075 22.3529H5.81215L5.86444 22.3485L5.91177 22.3437L5.96406 22.3393L6.01185 22.3344L6.06368 22.3296L6.11147 22.3252L6.1588 22.3159L6.20658 22.3062L6.24895 22.2969L6.29674 22.2877L6.33956 22.2735L6.38689 22.2599L6.51536 22.2175L6.55773 22.199L6.60552 22.1805L6.64834 22.1615L6.69567 22.143L6.7385 22.1196L6.78132 22.1011L6.82369 22.0777L6.86652 22.0543L6.90934 22.0314L6.94721 22.008L6.98552 21.9846L7.02339 21.9564L7.06125 21.933L7.09957 21.9052L7.13247 21.8818ZM13 28.2353L17.7273 26.4706H8.27273L13 28.2353Z" fill="#141414"/>
</svg>
