<?xml version="1.0" encoding="utf-8"?>
<!-- Generator: Adobe Illustrator 21.1.0, SVG Export Plug-In . SVG Version: 6.00 Build 0)  -->
<svg version="1.1" id="Layer_1" xmlns="http://www.w3.org/2000/svg" xmlns:xlink="http://www.w3.org/1999/xlink" x="0px" y="0px"
	 width="231.7px" height="240.7px" viewBox="0 0 231.7 240.7" style="enable-background:new 0 0 231.7 240.7;" xml:space="preserve"
	>
<style type="text/css">
	.st0{clip-path:url(#SVGID_2_);}
	.st1{clip-path:url(#SVGID_4_);fill:#2E2E2C;}
	.st2{clip-path:url(#SVGID_6_);}
	.st3{clip-path:url(#SVGID_8_);fill:#2E2E2C;}
	.st4{clip-path:url(#SVGID_10_);}
	.st5{clip-path:url(#SVGID_12_);fill:#2E2E2C;}
	.st6{clip-path:url(#SVGID_14_);}
	.st7{clip-path:url(#SVGID_16_);fill:#2E2E2C;}
	.st8{clip-path:url(#SVGID_18_);}
	.st9{clip-path:url(#SVGID_20_);fill:#2E2E2C;}
	.st10{clip-path:url(#SVGID_22_);}
	.st11{clip-path:url(#SVGID_24_);enable-background:new    ;}
	.st12{clip-path:url(#SVGID_26_);}
	.st13{clip-path:url(#SVGID_28_);}
	.st14{clip-path:url(#SVGID_30_);fill:#2E2E2C;}
	.st15{clip-path:url(#SVGID_32_);}
	.st16{clip-path:url(#SVGID_34_);fill:#2E2E2C;}
	.st17{clip-path:url(#SVGID_36_);}
	.st18{clip-path:url(#SVGID_38_);fill:#2E2E2C;}
	.st19{clip-path:url(#SVGID_40_);}
	.st20{clip-path:url(#SVGID_42_);fill:#2E2E2C;}
	.st21{clip-path:url(#SVGID_44_);}
	.st22{clip-path:url(#SVGID_46_);fill:#2E2E2C;}
	.st23{clip-path:url(#SVGID_48_);}
	.st24{clip-path:url(#SVGID_50_);fill:#2E2E2C;}
	.st25{clip-path:url(#SVGID_52_);}
	.st26{clip-path:url(#SVGID_54_);fill:#2E2E2C;}
	.st27{clip-path:url(#SVGID_56_);}
	.st28{clip-path:url(#SVGID_58_);fill:#2E2E2C;}
	.st29{clip-path:url(#SVGID_60_);}
	.st30{clip-path:url(#SVGID_62_);fill:#2E2E2C;}
</style>
<g>
	<g>
		<defs>
			<path id="SVGID_1_" d="M152,110.2c-3,0-4.2-1.8-4.2-1.8c-0.2-0.8-0.4-12.7-0.5-24.5c-0.1-12.3,0-24.5,0.6-24.6
				c3.5-6.5,14.5-19.6,14.5-19.6c-20.6,4.1-31.8,17.6-31.8,17.6c-3.3-2.6-10.1-2.2-10.1-2.2c3.2,1.7,6.3,6.8,6.3,11v41.4
				c0,0-6.9,6.1-12.2,6.1c-3.2,0-5.1-1.7-6.2-3.1c-0.7-1-1-1.8-1-1.8V57.6c-0.7,0.5-1.6,0.9-2.5,0.9c-1.1,0-2.3-0.6-3.1-2.2
				c-0.6-1.3-1-3.1-1-5.9c0-9.4,10.7-15.7,10.7-15.7c-13.5,3.6-26.1,10.6-42.8,29.8c-16.7,19.2-13.5,35-13.5,35S59.7,88.5,70.8,77
				c5.3-5.4,9.2-7.2,11.9-7.3c3,0,4.4,2.2,4.4,4.2v38.9c0,3.8-2.5,4.7-4.8,4.6c-1.9,0-3.7-0.7-3.7-0.7
				c11.4,16.5,38.6,18.9,38.6,18.9l12-12.8l0.3,0.2l11,9.3c20-11.9,29.7-34,29.7-34C161.1,108,155.4,110.2,152,110.2"/>
		</defs>
		<clipPath id="SVGID_2_">
			<use xlink:href="#SVGID_1_"  style="overflow:visible;"/>
		</clipPath>
		<g class="st0">
			<defs>
				<rect id="SVGID_3_" x="-46.8" y="-94.5" width="705.6" height="470.4"/>
			</defs>
			<clipPath id="SVGID_4_">
				<use xlink:href="#SVGID_3_"  style="overflow:visible;"/>
			</clipPath>
			<rect x="53.7" y="33.5" class="st1" width="117.6" height="103.4"/>
		</g>
	</g>
	<g>
		<defs>
			<path id="SVGID_5_" d="M115.6,5.2c21.2,0,41.2,8.3,56.2,23.5c15,15.1,23.3,35.3,23.3,56.7c0,21.4-8.3,41.5-23.3,56.7
				c-15,15.1-35,23.5-56.2,23.5s-41.2-8.3-56.2-23.5c-15-15.1-23.3-35.3-23.3-56.7c0-21.4,8.3-41.5,23.3-56.7
				C74.4,13.5,94.3,5.2,115.6,5.2 M115.6,1.5C69.6,1.5,32.4,39,32.4,85.3c0,46.3,37.2,83.8,83.1,83.8s83.1-37.5,83.1-83.8
				C198.7,39,161.5,1.5,115.6,1.5"/>
		</defs>
		<clipPath id="SVGID_6_">
			<use xlink:href="#SVGID_5_"  style="overflow:visible;"/>
		</clipPath>
		<g class="st2">
			<defs>
				<rect id="SVGID_7_" x="-46.8" y="-94.5" width="705.6" height="470.4"/>
			</defs>
			<clipPath id="SVGID_8_">
				<use xlink:href="#SVGID_7_"  style="overflow:visible;"/>
			</clipPath>
			<rect x="31.2" y="0.3" class="st3" width="168.6" height="170"/>
		</g>
	</g>
	<g>
		<defs>
			<polygon id="SVGID_9_" points="73.6,238.3 55.8,238.3 55.8,222 73.3,222 73.3,225.6 60.6,225.6 60.6,228.4 72.6,228.4 
				72.6,231.8 60.6,231.8 60.6,234.6 73.6,234.6 			"/>
		</defs>
		<clipPath id="SVGID_10_">
			<use xlink:href="#SVGID_9_"  style="overflow:visible;"/>
		</clipPath>
		<g class="st4">
			<defs>
				<rect id="SVGID_11_" x="-46.8" y="-94.5" width="705.6" height="470.4"/>
			</defs>
			<clipPath id="SVGID_12_">
				<use xlink:href="#SVGID_11_"  style="overflow:visible;"/>
			</clipPath>
			<rect x="54.6" y="220.9" class="st5" width="20.1" height="18.7"/>
		</g>
	</g>
	<g>
		<defs>
			<polygon id="SVGID_13_" points="97.7,238.3 90.6,238.3 81.1,226.1 81,226.1 81,238.3 76.3,238.3 76.3,222 83.6,222 92.9,234.3 
				93,234.3 93,222 97.7,222 			"/>
		</defs>
		<clipPath id="SVGID_14_">
			<use xlink:href="#SVGID_13_"  style="overflow:visible;"/>
		</clipPath>
		<g class="st6">
			<defs>
				<rect id="SVGID_15_" x="-46.8" y="-94.5" width="705.6" height="470.4"/>
			</defs>
			<clipPath id="SVGID_16_">
				<use xlink:href="#SVGID_15_"  style="overflow:visible;"/>
			</clipPath>
			<rect x="75.1" y="220.9" class="st7" width="23.8" height="18.7"/>
		</g>
	</g>
	<g>
		<defs>
			<path id="SVGID_17_" d="M111.6,238.5c-1.5,0-2.8,0-3.9-0.1c-1.1-0.1-2-0.2-2.8-0.4c-0.8-0.2-1.4-0.5-1.9-0.9
				c-0.5-0.4-0.9-0.9-1.1-1.5c-0.3-0.6-0.4-1.3-0.5-2.2c-0.1-0.8-0.1-1.9-0.1-3V230c0-1.2,0-2.2,0.1-3c0.1-0.9,0.3-1.6,0.5-2.2
				c0.3-0.6,0.6-1.1,1.1-1.4c0.5-0.4,1.1-0.7,1.9-0.9c0.8-0.2,1.7-0.3,2.8-0.4c1.1-0.1,2.4-0.1,3.9-0.1h0.7c1.3,0,2.4,0,3.3,0.1
				c0.9,0.1,1.8,0.2,2.4,0.3c0.7,0.1,1.2,0.3,1.7,0.6c0.4,0.2,0.8,0.6,1,0.9c0.3,0.4,0.4,0.8,0.5,1.4c0.1,0.5,0.1,1.2,0.1,1.9v0.6
				h-4.6v-0.2c0-0.4-0.1-0.7-0.2-0.9c-0.1-0.3-0.3-0.5-0.7-0.6c-0.3-0.2-0.8-0.3-1.4-0.3c-0.6-0.1-1.4-0.1-2.4-0.1h-0.4
				c-0.9,0-1.7,0-2.3,0c-0.6,0-1.2,0.1-1.6,0.2c-0.4,0.1-0.8,0.3-1,0.4c-0.2,0.2-0.4,0.5-0.6,0.8c-0.1,0.3-0.2,0.7-0.2,1.2
				c0,0.5-0.1,1.1-0.1,1.8v0.3c0,0.7,0,1.3,0.1,1.7c0,0.5,0.1,0.9,0.2,1.2c0.1,0.3,0.3,0.6,0.6,0.8c0.2,0.2,0.6,0.3,1,0.4
				c0.4,0.1,1,0.2,1.6,0.2c0.6,0,1.4,0,2.3,0h0.4c0.7,0,1.4,0,1.9,0c0.5,0,1-0.1,1.3-0.1c0.4-0.1,0.7-0.1,0.9-0.2
				c0.2-0.1,0.4-0.2,0.5-0.4c0.1-0.2,0.2-0.3,0.2-0.6c0-0.2,0.1-0.5,0.1-0.7v-0.5h-6.2v-3.1h10.8v3.6c0,0.8-0.1,1.5-0.2,2.1
				c-0.1,0.6-0.3,1.1-0.6,1.5c-0.3,0.4-0.6,0.8-1.1,1.1c-0.4,0.3-1,0.5-1.7,0.7s-1.5,0.3-2.5,0.4c-1,0.1-2.1,0.1-3.4,0.1H111.6z"/>
		</defs>
		<clipPath id="SVGID_18_">
			<use xlink:href="#SVGID_17_"  style="overflow:visible;"/>
		</clipPath>
		<g class="st8">
			<defs>
				<rect id="SVGID_19_" x="-46.8" y="-94.5" width="705.6" height="470.4"/>
			</defs>
			<clipPath id="SVGID_20_">
				<use xlink:href="#SVGID_19_"  style="overflow:visible;"/>
			</clipPath>
			<rect x="100.1" y="220.8" class="st9" width="22.8" height="18.9"/>
		</g>
	</g>
	<g>
		<defs>
			<rect id="SVGID_21_" x="1.8" y="184.5" width="227.7" height="54.1"/>
		</defs>
		<clipPath id="SVGID_22_">
			<use xlink:href="#SVGID_21_"  style="overflow:visible;"/>
		</clipPath>
		<g class="st10">
			<defs>
				<rect id="SVGID_23_" x="-46.8" y="-94.5" width="705.6" height="470.4"/>
			</defs>
			<clipPath id="SVGID_24_">
				<use xlink:href="#SVGID_23_"  style="overflow:visible;"/>
			</clipPath>
			<g class="st11">
				<g>
					<defs>
						<rect id="SVGID_25_" x="133.3" y="222.1" width="42.8" height="16.5"/>
					</defs>
					<clipPath id="SVGID_26_">
						<use xlink:href="#SVGID_25_"  style="overflow:visible;"/>
					</clipPath>
					<g class="st12">
						<defs>
							<polygon id="SVGID_27_" points="154.6,238.3 147.5,238.3 138.1,226.2 138,226.2 138,238.3 133.4,238.3 133.4,222.2 
								140.6,222.2 149.9,234.3 150,234.3 150,222.2 154.6,222.2 							"/>
						</defs>
						<clipPath id="SVGID_28_">
							<use xlink:href="#SVGID_27_"  style="overflow:visible;"/>
						</clipPath>
						<g class="st13">
							<defs>
								<rect id="SVGID_29_" x="1.8" y="184.4" width="227.7" height="54.1"/>
							</defs>
							<clipPath id="SVGID_30_">
								<use xlink:href="#SVGID_29_"  style="overflow:visible;"/>
							</clipPath>
							<rect x="132.2" y="221" class="st14" width="23.6" height="18.5"/>
						</g>
					</g>
					<g class="st12">
						<defs>
							<polygon id="SVGID_31_" points="176,238.3 158.4,238.3 158.4,222.2 175.7,222.2 175.7,225.7 163.1,225.7 163.1,228.5 
								175.1,228.5 175.1,231.9 163.1,231.9 163.1,234.7 176,234.7 							"/>
						</defs>
						<clipPath id="SVGID_32_">
							<use xlink:href="#SVGID_31_"  style="overflow:visible;"/>
						</clipPath>
						<g class="st15">
							<defs>
								<rect id="SVGID_33_" x="1.8" y="184.4" width="227.7" height="54.1"/>
							</defs>
							<clipPath id="SVGID_34_">
								<use xlink:href="#SVGID_33_"  style="overflow:visible;"/>
							</clipPath>
							<rect x="157.2" y="221" class="st16" width="20" height="18.5"/>
						</g>
					</g>
				</g>
			</g>
		</g>
	</g>
	<g>
		<defs>
			<path id="SVGID_35_" d="M18.9,213.3c-2.3,0-4.3-0.1-6.1-0.2c-1.7-0.1-3.2-0.3-4.5-0.6c-1.3-0.3-2.3-0.7-3.1-1.2
				c-0.8-0.5-1.5-1.2-2-1.9c-0.5-0.8-0.8-1.7-1-2.8c-0.2-1.1-0.3-2.3-0.3-3.7v-18.4h8.4v15.7c0,1,0,1.8,0.1,2.5
				c0.1,0.7,0.2,1.3,0.4,1.8c0.2,0.5,0.5,0.9,0.9,1.2c0.4,0.3,0.9,0.5,1.6,0.7c0.6,0.2,1.4,0.3,2.4,0.3c0.9,0.1,2.1,0.1,3.4,0.1h0.7
				c1.3,0,2.4,0,3.4-0.1c0.9-0.1,1.7-0.2,2.4-0.3c0.6-0.2,1.2-0.4,1.6-0.7c0.4-0.3,0.7-0.7,0.9-1.2c0.2-0.5,0.3-1.1,0.4-1.8
				c0.1-0.7,0.1-1.5,0.1-2.5v-15.7h8.4v18.4c0,1.4-0.1,2.6-0.3,3.7c-0.2,1.1-0.5,2-1,2.8c-0.5,0.8-1.1,1.4-2,1.9
				c-0.8,0.5-1.9,0.9-3.1,1.2c-1.3,0.3-2.8,0.5-4.5,0.6c-1.8,0.1-3.8,0.2-6.1,0.2H18.9z"/>
		</defs>
		<clipPath id="SVGID_36_">
			<use xlink:href="#SVGID_35_"  style="overflow:visible;"/>
		</clipPath>
		<g class="st17">
			<defs>
				<rect id="SVGID_37_" x="-46.8" y="-94.5" width="705.6" height="470.4"/>
			</defs>
			<clipPath id="SVGID_38_">
				<use xlink:href="#SVGID_37_"  style="overflow:visible;"/>
			</clipPath>
			<rect x="0.7" y="183.3" class="st18" width="37.4" height="31.2"/>
		</g>
	</g>
	<g>
		<defs>
			<polygon id="SVGID_39_" points="80,213 67.5,213 51,191.7 50.8,191.7 50.8,213 42.6,213 42.6,184.5 55.3,184.5 71.7,205.8 
				71.8,205.8 71.8,184.5 80,184.5 			"/>
		</defs>
		<clipPath id="SVGID_40_">
			<use xlink:href="#SVGID_39_"  style="overflow:visible;"/>
		</clipPath>
		<g class="st19">
			<defs>
				<rect id="SVGID_41_" x="-46.8" y="-94.5" width="705.6" height="470.4"/>
			</defs>
			<clipPath id="SVGID_42_">
				<use xlink:href="#SVGID_41_"  style="overflow:visible;"/>
			</clipPath>
			<rect x="41.4" y="183.3" class="st20" width="39.8" height="30.9"/>
		</g>
	</g>
	<g>
		<defs>
			<path id="SVGID_43_" d="M119.6,213h-8.3v-2.3c0-0.8,0-1.5-0.1-2.2c-0.1-0.6-0.2-1.1-0.4-1.5c-0.2-0.4-0.5-0.8-0.9-1
				c-0.4-0.3-0.9-0.4-1.6-0.6c-0.6-0.1-1.4-0.2-2.4-0.3c-0.9,0-2.1-0.1-3.4-0.1h-8.4v7.9h-8.3v-28.5H108c2.3,0,4.2,0.1,5.7,0.4
				c1.5,0.3,2.7,0.8,3.5,1.4c0.9,0.7,1.5,1.6,1.8,2.7c0.3,1.1,0.5,2.5,0.5,4.1v1c0,1.1-0.1,2.1-0.3,2.9c-0.2,0.8-0.5,1.6-0.9,2.2
				c-0.4,0.6-0.9,1.1-1.5,1.5c-0.6,0.4-1.4,0.7-2.3,0.9v0.2c1,0.2,1.8,0.4,2.5,0.6c0.6,0.3,1.1,0.6,1.5,1.1c0.4,0.5,0.6,1.2,0.7,2
				c0.1,0.8,0.2,1.8,0.2,3.1V213z M104.6,198.9c1.4,0,2.6,0,3.5-0.1c0.9-0.1,1.5-0.3,2-0.6c0.4-0.3,0.7-0.7,0.9-1.2
				c0.1-0.5,0.2-1.2,0.2-2v-0.5c0-0.8-0.1-1.5-0.2-2c-0.1-0.5-0.4-0.9-0.9-1.1c-0.5-0.3-1.1-0.4-2-0.5c-0.9-0.1-2-0.1-3.4-0.1H94.2
				v8.1H104.6z"/>
		</defs>
		<clipPath id="SVGID_44_">
			<use xlink:href="#SVGID_43_"  style="overflow:visible;"/>
		</clipPath>
		<g class="st21">
			<defs>
				<rect id="SVGID_45_" x="-46.8" y="-94.5" width="705.6" height="470.4"/>
			</defs>
			<clipPath id="SVGID_46_">
				<use xlink:href="#SVGID_45_"  style="overflow:visible;"/>
			</clipPath>
			<rect x="84.7" y="183.3" class="st22" width="36.1" height="30.9"/>
		</g>
	</g>
	<g>
		<defs>
			<polygon id="SVGID_47_" points="156.1,213 125,213 125,184.5 155.6,184.5 155.6,190.8 133.4,190.8 133.4,195.6 154.4,195.6 
				154.4,201.6 133.4,201.6 133.4,206.5 156.1,206.5 			"/>
		</defs>
		<clipPath id="SVGID_48_">
			<use xlink:href="#SVGID_47_"  style="overflow:visible;"/>
		</clipPath>
		<g class="st23">
			<defs>
				<rect id="SVGID_49_" x="-46.8" y="-94.5" width="705.6" height="470.4"/>
			</defs>
			<clipPath id="SVGID_50_">
				<use xlink:href="#SVGID_49_"  style="overflow:visible;"/>
			</clipPath>
			<rect x="123.9" y="183.3" class="st24" width="33.4" height="30.9"/>
		</g>
	</g>
	<g>
		<defs>
			<path id="SVGID_51_" d="M198.9,213h-9.1l-2.6-5.1h-17.8l-2.6,5.1h-9l15.3-28.5h10.3L198.9,213z M184.2,201.9l-5.8-11.5h-0.2
				l-5.8,11.5H184.2z"/>
		</defs>
		<clipPath id="SVGID_52_">
			<use xlink:href="#SVGID_51_"  style="overflow:visible;"/>
		</clipPath>
		<g class="st25">
			<defs>
				<rect id="SVGID_53_" x="-46.8" y="-94.5" width="705.6" height="470.4"/>
			</defs>
			<clipPath id="SVGID_54_">
				<use xlink:href="#SVGID_53_"  style="overflow:visible;"/>
			</clipPath>
			<rect x="156.7" y="183.3" class="st26" width="43.4" height="30.9"/>
		</g>
	</g>
	<g>
		<defs>
			<polygon id="SVGID_55_" points="229.5,213 202,213 202,184.5 210.4,184.5 210.4,206.4 229.5,206.4 			"/>
		</defs>
		<clipPath id="SVGID_56_">
			<use xlink:href="#SVGID_55_"  style="overflow:visible;"/>
		</clipPath>
		<g class="st27">
			<defs>
				<rect id="SVGID_57_" x="-46.8" y="-94.5" width="705.6" height="470.4"/>
			</defs>
			<clipPath id="SVGID_58_">
				<use xlink:href="#SVGID_57_"  style="overflow:visible;"/>
			</clipPath>
			<rect x="200.8" y="183.3" class="st28" width="29.8" height="30.9"/>
		</g>
	</g>
	<g>
		<defs>
			<rect id="SVGID_59_" x="125" y="222.2" width="4.8" height="16.2"/>
		</defs>
		<clipPath id="SVGID_60_">
			<use xlink:href="#SVGID_59_"  style="overflow:visible;"/>
		</clipPath>
		<g class="st29">
			<defs>
				<rect id="SVGID_61_" x="-46.8" y="-94.5" width="705.6" height="470.4"/>
			</defs>
			<clipPath id="SVGID_62_">
				<use xlink:href="#SVGID_61_"  style="overflow:visible;"/>
			</clipPath>
			<rect x="123.8" y="221" class="st30" width="7.1" height="18.5"/>
		</g>
	</g>
</g>
</svg>
